<?xml version="1.0" encoding="UTF-8" standalone="no"?>
<!-- Generator: Adobe Illustrator 22.0.1, SVG Export Plug-In . SVG Version: 6.00 Build 0)  -->

<svg
   xmlns:dc="http://purl.org/dc/elements/1.1/"
   xmlns:cc="http://creativecommons.org/ns#"
   xmlns:rdf="http://www.w3.org/1999/02/22-rdf-syntax-ns#"
   xmlns:svg="http://www.w3.org/2000/svg"
   xmlns="http://www.w3.org/2000/svg"
   xmlns:sodipodi="http://sodipodi.sourceforge.net/DTD/sodipodi-0.dtd"
   xmlns:inkscape="http://www.inkscape.org/namespaces/inkscape"
   version="1.1"
   id="Vrstva_1"
   x="0px"
   y="0px"
   viewBox="10 0 397.696 231.93328"
   xml:space="preserve"
   sodipodi:docname="smartCAMPUSZCU_logo.svg"
   width="105.22373mm"
   height="61.365688mm"
   inkscape:version="0.92.2 (5c3e80d, 2017-08-06)"><metadata
     id="metadata41"><rdf:RDF><cc:Work
         rdf:about=""><dc:format>image/svg+xml</dc:format><dc:type
           rdf:resource="http://purl.org/dc/dcmitype/StillImage" /><dc:title></dc:title></cc:Work></rdf:RDF></metadata><defs
     id="defs39" /><sodipodi:namedview
     pagecolor="#ffffff"
     bordercolor="#666666"
     borderopacity="1"
     objecttolerance="10"
     gridtolerance="10"
     guidetolerance="10"
     inkscape:pageopacity="0"
     inkscape:pageshadow="2"
     inkscape:window-width="1362"
     inkscape:window-height="729"
     id="namedview37"
     showgrid="false"
     units="mm"
     showguides="false"
     inkscape:zoom="1.3874191"
     inkscape:cx="108.11441"
     inkscape:cy="85.050003"
     inkscape:window-x="0"
     inkscape:window-y="18"
     inkscape:window-maximized="0"
     inkscape:current-layer="Vrstva_1" /><style
     type="text/css"
     id="style2">
	.st0{fill:#419ED8;}
	.st1{fill:#4A494A;}
</style><g
     id="g16"
     transform="matrix(1.9888386,0,0,1.9888386,21.223846,-53.451961)"><path
       class="st0"
       d="m 68.3,91.8 c 0,-4.6 3.5,-7.7 8,-7.7 3.7,0 5.7,2 6.6,4 l -3.3,1.6 c -0.5,-1.2 -1.8,-2.2 -3.3,-2.2 -2.3,0 -4.1,1.9 -4.1,4.3 0,2.4 1.7,4.3 4.1,4.3 1.5,0 2.8,-1 3.3,-2.2 l 3.3,1.6 c -1,1.9 -2.9,4 -6.6,4 -4.5,0.1 -8,-3.1 -8,-7.7 z"
       id="path4"
       inkscape:connector-curvature="0"
       style="fill:#419ed8" /><path
       class="st0"
       d="M 94,97 H 87.8 L 87,99.3 h -4.2 l 5.6,-15 h 4.8 l 5.7,15 H 94.7 Z M 88.8,93.8 H 93 l -2.1,-6.1 z"
       id="path6"
       inkscape:connector-curvature="0"
       style="fill:#419ed8" /><path
       class="st0"
       d="m 113.2,89.2 -3.8,10.1 h -1.7 L 103.9,89.2 V 99.3 H 100 v -15 h 5.4 l 3.1,8.5 3.1,-8.5 h 5.4 v 15 h -3.9 V 89.2 Z"
       id="path8"
       inkscape:connector-curvature="0"
       style="fill:#419ed8" /><path
       class="st0"
       d="m 119.7,84.3 h 7.5 c 3.4,0 5.2,2.3 5.2,5 0,2.7 -1.8,4.9 -5.2,4.9 h -3.6 v 5.1 h -3.9 z m 7,3.3 h -3.1 V 91 h 3.1 c 1,0 1.8,-0.7 1.8,-1.7 0,-1.1 -0.8,-1.7 -1.8,-1.7 z"
       id="path10"
       inkscape:connector-curvature="0"
       style="fill:#419ed8" /><path
       class="st0"
       d="m 134.2,84.3 h 3.9 v 8.8 c 0,1.8 0.9,3.1 3,3.1 2.1,0 3,-1.3 3,-3.1 v -8.8 h 3.9 v 8.9 c 0,3.7 -2.1,6.4 -6.9,6.4 -4.8,0 -7,-2.6 -7,-6.3 v -9 z"
       id="path12"
       inkscape:connector-curvature="0"
       style="fill:#419ed8" /><path
       class="st0"
       d="m 151.7,94.3 c 1.1,1.1 2.7,2 4.8,2 1.3,0 2.1,-0.6 2.1,-1.3 0,-0.9 -1,-1.2 -2.6,-1.5 -2.5,-0.5 -5.9,-1.1 -5.9,-4.7 0,-2.5 2.1,-4.7 6,-4.7 2.4,0 4.5,0.7 6.1,2.1 l -2.1,2.8 c -1.3,-1 -2.9,-1.5 -4.2,-1.5 -1.3,0 -1.8,0.5 -1.8,1.2 0,0.8 0.9,1.1 2.6,1.4 2.5,0.5 5.9,1.2 5.9,4.6 0,3 -2.2,5 -6.2,5 -3,0 -5.1,-0.9 -6.6,-2.4 z"
       id="path14"
       inkscape:connector-curvature="0"
       style="fill:#419ed8" /></g><g
     id="g28"
     transform="matrix(1.9888386,0,0,1.9888386,21.223846,-53.451961)"><path
       class="st1"
       d="m 69.4,78.8 c 0.8,0.9 2.2,1.6 3.7,1.6 1.7,0 2.7,-0.8 2.7,-1.9 0,-1.2 -1.4,-1.6 -2.9,-2 -1.9,-0.4 -4.1,-1 -4.1,-3.3 0,-1.8 1.5,-3.3 4.2,-3.3 1.9,0 3.3,0.7 4.2,1.6 l -0.8,1.2 c -0.7,-0.8 -1.9,-1.4 -3.4,-1.4 -1.5,0 -2.5,0.7 -2.5,1.7 0,1.1 1.3,1.5 2.8,1.8 2,0.4 4.2,1 4.2,3.5 0,1.9 -1.5,3.4 -4.5,3.4 -1.9,0 -3.4,-0.6 -4.6,-1.8 z"
       id="path18"
       inkscape:connector-curvature="0"
       style="fill:#4a494a" /><path
       class="st1"
       d="m 94.1,73.9 c 0,-1.4 -0.6,-2.3 -2.1,-2.3 -1.2,0 -2.4,0.8 -3,1.7 v 8.3 h -1.8 v -7.7 c 0,-1.4 -0.6,-2.3 -2.1,-2.3 -1.1,0 -2.4,0.8 -3,1.8 v 8.3 H 80.3 V 70.2 h 1.8 v 1.6 c 0.5,-0.7 2,-1.9 3.7,-1.9 1.7,0 2.7,0.9 3.1,2.1 0.6,-1 2.2,-2.1 3.8,-2.1 2.1,0 3.2,1.1 3.2,3.4 v 8.2 h -1.8 z"
       id="path20"
       inkscape:connector-curvature="0"
       style="fill:#4a494a" /><path
       class="st1"
       d="m 106.4,80.3 c -0.9,1 -2.2,1.6 -3.8,1.6 -1.9,0 -4,-1.3 -4,-3.8 0,-2.5 2,-3.7 4,-3.7 1.5,0 2.8,0.5 3.8,1.5 v -2 c 0,-1.5 -1.2,-2.4 -2.9,-2.4 -1.4,0 -2.5,0.5 -3.5,1.6 l -0.8,-1.2 c 1.2,-1.3 2.7,-1.9 4.5,-1.9 2.4,0 4.4,1.1 4.4,3.8 v 7.8 h -1.8 v -1.3 z m 0,-3.3 c -0.7,-0.9 -1.9,-1.4 -3.1,-1.4 -1.6,0 -2.8,1 -2.8,2.5 0,1.4 1.1,2.5 2.8,2.5 1.2,0 2.4,-0.5 3.1,-1.4 z"
       id="path22"
       inkscape:connector-curvature="0"
       style="fill:#4a494a" /><path
       class="st1"
       d="m 111.7,70.2 h 1.8 V 72 c 0.9,-1.2 2.2,-2.1 3.8,-2.1 v 1.8 c -0.2,0 -0.4,-0.1 -0.7,-0.1 -1.1,0 -2.6,0.9 -3.1,1.8 v 8 h -1.8 z"
       id="path24"
       inkscape:connector-curvature="0"
       style="fill:#4a494a" /><path
       class="st1"
       d="M 119.8,79.2 V 71.8 H 118 v -1.5 h 1.9 v -3.1 h 1.8 v 3.1 h 2.3 v 1.5 h -2.3 v 7 c 0,0.8 0.4,1.5 1.2,1.5 0.5,0 1,-0.2 1.2,-0.5 l 0.5,1.3 c -0.4,0.4 -1.1,0.7 -2.1,0.7 -1.8,0 -2.7,-0.9 -2.7,-2.6 z"
       id="path26"
       inkscape:connector-curvature="0"
       style="fill:#4a494a" /></g><g
     id="g34"
     transform="matrix(1.9888386,0,0,1.9888386,21.223846,-53.451961)"><polygon
       class="st0"
       points="45.4,79.1 45.4,91.3 56,85.1 "
       id="polygon30"
       style="fill:#419ed8" /><path
       class="st0"
       d="m 18.3,92.5 v -18 H 26 v 17.1 c 0,3.4 1.8,6.7 5.9,6.7 0.8,0 1.5,-0.1 2.2,-0.4 L 35.6,97 c 1.5,-1.3 2.2,-3.3 2.2,-5.5 V 74.7 L 10.2,59 v 52.7 l 14.9,-8.6 c -4.6,-1.8 -6.8,-5.5 -6.8,-10.6 z"
       id="path32"
       inkscape:connector-curvature="0"
       style="fill:#419ed8" /></g></svg>