<?xml version="1.0" encoding="UTF-8" standalone="no"?>
<svg
   xmlns:dc="http://purl.org/dc/elements/1.1/"
   xmlns:cc="http://creativecommons.org/ns#"
   xmlns:rdf="http://www.w3.org/1999/02/22-rdf-syntax-ns#"
   xmlns:svg="http://www.w3.org/2000/svg"
   xmlns="http://www.w3.org/2000/svg"
   xmlns:sodipodi="http://sodipodi.sourceforge.net/DTD/sodipodi-0.dtd"
   xmlns:inkscape="http://www.inkscape.org/namespaces/inkscape"
   id="svg1332"
   version="1.1"
   viewBox="0 0 105.22373 61.365692"
   height="61.365692mm"
   width="105.22373mm"
   sodipodi:docname="ZCU_logotype.svg"
   inkscape:version="0.92.2 (5c3e80d, 2017-08-06)">
  <sodipodi:namedview
     pagecolor="#ffffff"
     bordercolor="#666666"
     borderopacity="1"
     objecttolerance="10"
     gridtolerance="10"
     guidetolerance="10"
     inkscape:pageopacity="0"
     inkscape:pageshadow="2"
     inkscape:window-width="1362"
     inkscape:window-height="729"
     id="namedview1071"
     showgrid="false"
     inkscape:zoom="0.95298923"
     inkscape:cx="304.83031"
     inkscape:cy="32.020278"
     inkscape:window-x="0"
     inkscape:window-y="18"
     inkscape:window-maximized="0"
     inkscape:current-layer="svg1332" />
  <defs
     id="defs1326">
    <clipPath
       id="clipPath148"
       clipPathUnits="userSpaceOnUse">
      <path
         id="path146"
         d="M 17.835,17.835 H 811.536 V 528.071 H 17.835 Z"
         inkscape:connector-curvature="0" />
    </clipPath>
    <clipPath
       id="clipPath110"
       clipPathUnits="userSpaceOnUse">
      <path
         id="path108"
         d="M 17.835,17.835 H 811.536 V 528.071 H 17.835 Z"
         inkscape:connector-curvature="0" />
    </clipPath>
    <clipPath
       id="clipPath94"
       clipPathUnits="userSpaceOnUse">
      <path
         id="path92"
         d="M 17.835,17.835 H 811.536 V 528.071 H 17.835 Z"
         inkscape:connector-curvature="0" />
    </clipPath>
    <clipPath
       id="clipPath70"
       clipPathUnits="userSpaceOnUse">
      <path
         id="path68"
         d="M 17.835,17.835 H 811.536 V 528.071 H 17.835 Z"
         inkscape:connector-curvature="0" />
    </clipPath>
    <clipPath
       id="clipPath44"
       clipPathUnits="userSpaceOnUse">
      <path
         id="path42"
         d="M 17.835,17.835 H 811.536 V 528.071 H 17.835 Z"
         inkscape:connector-curvature="0" />
    </clipPath>
    <clipPath
       id="clipPath18"
       clipPathUnits="userSpaceOnUse">
      <path
         id="path16"
         d="M 17.835,17.835 H 811.536 V 528.071 H 17.835 Z"
         inkscape:connector-curvature="0" />
    </clipPath>
    <clipPath
       id="clipPath148-3"
       clipPathUnits="userSpaceOnUse">
      <path
         id="path146-6"
         d="M 17.835,17.835 H 811.536 V 528.071 H 17.835 Z"
         inkscape:connector-curvature="0" />
    </clipPath>
    <clipPath
       id="clipPath110-7"
       clipPathUnits="userSpaceOnUse">
      <path
         id="path108-5"
         d="M 17.835,17.835 H 811.536 V 528.071 H 17.835 Z"
         inkscape:connector-curvature="0" />
    </clipPath>
    <clipPath
       id="clipPath94-3"
       clipPathUnits="userSpaceOnUse">
      <path
         id="path92-5"
         d="M 17.835,17.835 H 811.536 V 528.071 H 17.835 Z"
         inkscape:connector-curvature="0" />
    </clipPath>
    <clipPath
       id="clipPath70-6"
       clipPathUnits="userSpaceOnUse">
      <path
         id="path68-2"
         d="M 17.835,17.835 H 811.536 V 528.071 H 17.835 Z"
         inkscape:connector-curvature="0" />
    </clipPath>
    <clipPath
       id="clipPath44-9"
       clipPathUnits="userSpaceOnUse">
      <path
         id="path42-1"
         d="M 17.835,17.835 H 811.536 V 528.071 H 17.835 Z"
         inkscape:connector-curvature="0" />
    </clipPath>
    <clipPath
       id="clipPath18-2"
       clipPathUnits="userSpaceOnUse">
      <path
         id="path16-7"
         d="M 17.835,17.835 H 811.536 V 528.071 H 17.835 Z"
         inkscape:connector-curvature="0" />
    </clipPath>
  </defs>
  <metadata
     id="metadata1329">
    <rdf:RDF>
      <cc:Work
         rdf:about="">
        <dc:format>image/svg+xml</dc:format>
        <dc:type
           rdf:resource="http://purl.org/dc/dcmitype/StillImage" />
        <dc:title></dc:title>
      </cc:Work>
    </rdf:RDF>
  </metadata>
  <g
     transform="matrix(0.77029575,0,0,0.77029575,-8.2189818,2.7962048)"
     id="layer1">
    <g
       id="g12"
       transform="matrix(0.35277777,0,0,-0.35277777,-14.888076,170.96966)">
      <g
         clip-path="url(#clipPath18-2)"
         id="g14">
        <g
           transform="translate(213.7227,402.7916)"
           id="g20">
          <path
             id="path22"
             style="fill:#2857af;fill-opacity:1;fill-rule:nonzero;stroke:none"
             d="m 0,0 v -7.368 c 0,-1.555 -0.877,-3.195 -3.526,-3.195 -2.388,0 -3.541,1.238 -3.541,3.195 V 0 h 2.172 v -7.225 c 0,-1.28 0.55,-1.785 1.341,-1.785 0.95,0 1.381,0.633 1.381,1.785 V 0 Z"
             inkscape:connector-curvature="0" />
        </g>
      </g>
    </g>
    <g
       transform="matrix(0.35277777,0,0,-0.35277777,61.416946,32.53941)"
       id="g24">
      <path
         id="path26"
         style="fill:#2857af;fill-opacity:1;fill-rule:nonzero;stroke:none"
         d="M 0,0 V 10.391 H 2.937 L 5.7,3.194 h 0.03 v 7.197 H 7.758 V 0 H 4.894 L 2.057,7.599 H 2.031 V 0 Z"
         inkscape:connector-curvature="0" />
    </g>
    <path
       id="path28"
       style="fill:#2857af;fill-opacity:1;fill-rule:nonzero;stroke:none;stroke-width:0.35277775"
       d="m 65.072176,28.87359 h 0.7673 v 3.665714 h -0.7673 z"
       inkscape:connector-curvature="0" />
    <g
       transform="matrix(0.35277777,0,0,-0.35277777,66.545136,28.873732)"
       id="g30">
      <path
         id="path32"
         style="fill:#2857af;fill-opacity:1;fill-rule:nonzero;stroke:none"
         d="M 0,0 H 2.26 L 3.873,-7.555 H 3.901 L 5.713,0 H 7.858 L 5.11,-10.391 H 2.561 Z"
         inkscape:connector-curvature="0" />
    </g>
    <g
       transform="matrix(0.35277777,0,0,-0.35277777,70.022816,32.53941)"
       id="g34">
      <path
         id="path36"
         style="fill:#2857af;fill-opacity:1;fill-rule:nonzero;stroke:none"
         d="M 0,0 V 10.391 H 5.671 V 8.793 H 2.173 V 6.232 H 5.396 V 4.633 H 2.173 V 1.598 H 5.785 V 0 Z"
         inkscape:connector-curvature="0" />
    </g>
    <g
       id="g38"
       transform="matrix(0.35277777,0,0,-0.35277777,-14.888076,170.96966)">
      <g
         clip-path="url(#clipPath44-9)"
         id="g40">
        <g
           transform="translate(250.8441,392.4007)"
           id="g46">
          <path
             id="path48"
             style="fill:#2857af;fill-opacity:1;fill-rule:nonzero;stroke:none"
             d="m 0,0 h -2.173 v 10.391 h 4.017 c 1.483,0 2.431,-0.95 2.431,-2.72 0,-1.323 -0.519,-2.316 -1.927,-2.548 V 5.096 C 2.821,5.037 4.233,4.923 4.233,3.052 4.233,2.389 4.275,0.431 4.477,0 H 2.348 C 2.06,0.633 2.116,1.338 2.116,2.014 c 0,1.238 0.116,2.289 -1.553,2.289 H 0 Z m 0,5.901 h 0.965 c 0.864,0 1.108,0.864 1.108,1.526 0,0.991 -0.417,1.366 -1.108,1.366 H 0 Z"
             inkscape:connector-curvature="0" />
        </g>
        <g
           transform="translate(260.3698,392.2288)"
           id="g50">
          <path
             id="path52"
             style="fill:#2857af;fill-opacity:1;fill-rule:nonzero;stroke:none"
             d="m 0,0 c -2.689,0 -3.194,1.584 -3.079,3.381 h 2.172 c 0,-0.992 0.045,-1.828 1.239,-1.828 0.735,0 1.092,0.474 1.092,1.181 0,1.871 -4.374,1.985 -4.374,5.081 0,1.625 0.777,2.92 3.427,2.92 2.115,0 3.165,-0.949 3.02,-3.122 H 1.382 c 0,0.776 -0.13,1.569 -1.008,1.569 -0.704,0 -1.122,-0.39 -1.122,-1.11 0,-1.971 4.375,-1.797 4.375,-5.064 C 3.627,0.315 1.657,0 0,0"
             inkscape:connector-curvature="0" />
        </g>
      </g>
    </g>
    <path
       id="path54"
       style="fill:#2857af;fill-opacity:1;fill-rule:nonzero;stroke:none;stroke-width:0.35277775"
       d="m 79.059466,28.87359 h 0.76694 v 3.665714 h -0.76694 z"
       inkscape:connector-curvature="0" />
    <g
       transform="matrix(0.35277777,0,0,-0.35277777,82.780676,28.873732)"
       id="g56">
      <path
         id="path58"
         style="fill:#2857af;fill-opacity:1;fill-rule:nonzero;stroke:none"
         d="m 0,0 v -1.728 h -2.418 v -8.663 h -2.173 v 8.663 H -7.008 V 0 Z"
         inkscape:connector-curvature="0" />
    </g>
    <g
       transform="matrix(0.35277777,0,0,-0.35277777,84.014446,31.270116)"
       id="g60">
      <path
         id="path62"
         style="fill:#2857af;fill-opacity:1;fill-rule:nonzero;stroke:none"
         d="m 0,0 -2.721,6.793 h 2.375 L 1.208,2.404 2.863,6.793 H 5.081 L 2.174,0 V -3.598 H 0 Z"
         inkscape:connector-curvature="0" />
    </g>
    <g
       id="g64"
       transform="matrix(0.35277777,0,0,-0.35277777,-14.888076,170.96966)">
      <g
         clip-path="url(#clipPath70-6)"
         id="g66">
        <g
           transform="translate(206.5967,377.1152)"
           id="g72">
          <path
             id="path74"
             style="fill:#2857af;fill-opacity:1;fill-rule:nonzero;stroke:none"
             d="m 0,0 c 0,2.749 0,5.367 3.586,5.367 3.582,0 3.582,-2.618 3.582,-5.367 0,-2.72 0,-5.367 -3.582,-5.367 C 0,-5.367 0,-2.72 0,0 M 4.968,0 C 4.968,2.663 4.81,3.814 3.586,3.814 2.363,3.814 2.204,2.663 2.204,0 c 0,-2.661 0.159,-3.814 1.382,-3.814 1.224,0 1.382,1.153 1.382,3.814"
             inkscape:connector-curvature="0" />
        </g>
      </g>
    </g>
    <g
       transform="matrix(0.35277777,0,0,-0.35277777,61.388226,39.764545)"
       id="g76">
      <path
         id="path78"
         style="fill:#2857af;fill-opacity:1;fill-rule:nonzero;stroke:none"
         d="M 0,0 V 10.39 H 5.398 V 8.792 H 2.172 V 6.131 H 5.254 V 4.533 H 2.172 V 0 Z"
         inkscape:connector-curvature="0" />
    </g>
    <g
       transform="matrix(0.35277777,0,0,-0.35277777,64.713976,36.099042)"
       id="g80">
      <path
         id="path82"
         style="fill:#2857af;fill-opacity:1;fill-rule:nonzero;stroke:none"
         d="M 0,0 H 2.232 L 3.586,-7.298 H 3.614 L 5.254,0 H 7.817 L 9.37,-7.298 H 9.399 L 10.694,0 h 2.13 L 10.52,-10.39 H 8.117 L 6.493,-2.792 H 6.462 L 4.665,-10.39 h -2.36 z"
         inkscape:connector-curvature="0" />
    </g>
    <g
       transform="matrix(0.35277777,0,0,-0.35277777,69.929086,39.764545)"
       id="g84">
      <path
         id="path86"
         style="fill:#2857af;fill-opacity:1;fill-rule:nonzero;stroke:none"
         d="M 0,0 V 10.39 H 5.669 V 8.792 H 2.174 V 6.233 H 5.398 V 4.634 H 2.174 V 1.598 H 5.785 V 0 Z"
         inkscape:connector-curvature="0" />
    </g>
    <g
       id="g88"
       transform="matrix(0.35277777,0,0,-0.35277777,-14.888076,170.96966)">
      <g
         clip-path="url(#clipPath94-3)"
         id="g90">
        <g
           transform="translate(251.3415,371.7482)"
           id="g96">
          <path
             id="path98"
             style="fill:#2857af;fill-opacity:1;fill-rule:nonzero;stroke:none"
             d="m 0,0 c -2.689,0 -3.193,1.583 -3.079,3.382 h 2.174 c 0,-0.995 0.043,-1.829 1.237,-1.829 0.734,0 1.093,0.475 1.093,1.18 0,1.872 -4.374,1.987 -4.374,5.082 0,1.624 0.776,2.919 3.425,2.919 2.116,0 3.166,-0.95 3.023,-3.122 H 1.382 c 0,0.775 -0.13,1.569 -1.008,1.569 -0.704,0 -1.122,-0.389 -1.122,-1.108 0,-1.971 4.377,-1.799 4.377,-5.066 C 3.629,0.316 1.657,0 0,0"
             inkscape:connector-curvature="0" />
        </g>
      </g>
    </g>
    <g
       transform="matrix(0.35277777,0,0,-0.35277777,78.044876,36.099042)"
       id="g100">
      <path
         id="path102"
         style="fill:#2857af;fill-opacity:1;fill-rule:nonzero;stroke:none"
         d="M 0,0 V -1.727 H -2.417 V -10.39 H -4.59 v 8.663 H -7.01 V 0 Z"
         inkscape:connector-curvature="0" />
    </g>
    <g
       id="g104"
       transform="matrix(0.35277777,0,0,-0.35277777,-14.888076,170.96966)">
      <g
         clip-path="url(#clipPath110-7)"
         id="g106">
        <g
           transform="translate(268.3831,371.92)"
           id="g112">
          <path
             id="path114"
             style="fill:#2857af;fill-opacity:1;fill-rule:nonzero;stroke:none"
             d="m 0,0 v 10.39 h 3.856 c 1.656,0 3.022,-0.474 3.022,-2.69 0,-1.196 -0.589,-2.059 -1.77,-2.288 V 5.383 C 6.647,5.168 7.051,4.173 7.051,2.749 7.051,0.115 4.762,0 3.842,0 Z m 2.174,6.145 h 1.451 c 0.476,0 1.137,0.316 1.137,1.325 0,0.761 -0.518,1.322 -1.25,1.322 H 2.174 Z m 0,-4.547 h 1.208 c 0.46,0 1.496,0.014 1.496,1.468 0,0.922 -0.346,1.483 -1.438,1.483 H 2.174 Z"
             inkscape:connector-curvature="0" />
        </g>
        <g
           transform="translate(277.7278,377.1152)"
           id="g116">
          <path
             id="path118"
             style="fill:#2857af;fill-opacity:1;fill-rule:nonzero;stroke:none"
             d="m 0,0 c 0,2.749 0,5.367 3.584,5.367 3.583,0 3.583,-2.618 3.583,-5.367 0,-2.72 0,-5.367 -3.583,-5.367 C 0,-5.367 0,-2.72 0,0 M 4.966,0 C 4.966,2.663 4.809,3.814 3.584,3.814 2.359,3.814 2.202,2.663 2.202,0 c 0,-2.661 0.157,-3.814 1.382,-3.814 1.225,0 1.382,1.153 1.382,3.814"
             inkscape:connector-curvature="0" />
        </g>
      </g>
    </g>
    <g
       transform="matrix(0.35277777,0,0,-0.35277777,88.145366,37.565718)"
       id="g120">
      <path
         id="path122"
         style="fill:#2857af;fill-opacity:1;fill-rule:nonzero;stroke:none"
         d="M 0,0 V 4.158 H 2.171 V -6.233 H 0 v 4.635 H -2.49 V -6.233 H -4.663 V 4.158 H -2.49 V 0 Z"
         inkscape:connector-curvature="0" />
    </g>
    <g
       transform="matrix(0.35277777,0,0,-0.35277777,89.841736,39.764545)"
       id="g124">
      <path
         id="path126"
         style="fill:#2857af;fill-opacity:1;fill-rule:nonzero;stroke:none"
         d="M 0,0 V 10.39 H 5.671 V 8.792 H 2.175 V 6.233 H 5.397 V 4.634 H 2.175 V 1.598 H 5.788 V 0 Z"
         inkscape:connector-curvature="0" />
    </g>
    <g
       transform="matrix(0.35277777,0,0,-0.35277777,92.656616,39.764545)"
       id="g128">
      <path
         id="path130"
         style="fill:#2857af;fill-opacity:1;fill-rule:nonzero;stroke:none"
         d="M 0,0 V 10.39 H 3.496 L 5.124,3.326 h 0.028 l 1.726,7.064 h 3.385 V 0 H 8.145 V 8.017 H 8.117 L 6.115,0 H 4.046 L 2.144,8.017 H 2.116 V 0 Z"
         inkscape:connector-curvature="0" />
    </g>
    <path
       id="path132"
       style="fill:#2857af;fill-opacity:1;fill-rule:nonzero;stroke:none;stroke-width:0.35277775"
       d="m 97.185186,36.099185 h 0.76659 v 3.66536 h -0.76659 z"
       inkscape:connector-curvature="0" />
    <g
       transform="matrix(0.35277777,0,0,-0.35277777,98.667666,39.764545)"
       id="g134">
      <path
         id="path136"
         style="fill:#2857af;fill-opacity:1;fill-rule:nonzero;stroke:none"
         d="M 0,0 2.879,10.39 H 5.742 L 8.561,0 H 6.275 L 5.698,2.304 H 2.734 L 2.143,0 Z M 4.187,8.39 H 4.159 L 3.165,3.9 h 2.073 z"
         inkscape:connector-curvature="0" />
    </g>
    <g
       transform="matrix(0.35277777,0,0,-0.35277777,45.645136,32.001281)"
       id="g138">
      <path
         id="path140"
         style="fill:#2857af;fill-opacity:1;fill-rule:nonzero;stroke:none"
         d="M 0,0 V -23.732 L 20.547,-11.86 Z"
         inkscape:connector-curvature="0" />
    </g>
    <g
       id="g142"
       transform="matrix(0.35277777,0,0,-0.35277777,-14.888076,170.96966)">
      <g
         clip-path="url(#clipPath148-3)"
         id="g144">
        <g
           transform="translate(103.1272,330.6724)"
           id="g150">
          <path
             id="path152"
             style="fill:#2857af;fill-opacity:1;fill-rule:nonzero;stroke:none"
             d="m 0,0 29.879,17.25 c -8.348,2.791 -14.354,9 -14.459,19.732 V 72.491 H 30.788 V 37.747 c 0.231,-7.071 3.924,-11.527 11.15,-11.527 2.045,0 3.792,0.372 5.276,1.038 l 1.615,0.938 c 2.694,1.949 4.114,5.267 4.257,9.551 v 34.367 h 0.036 L 0,102.784 Z"
             inkscape:connector-curvature="0" />
        </g>
      </g>
    </g>
  </g>
</svg>
