<?xml version="1.0" encoding="UTF-8" standalone="no"?>
<!-- Created with Inkscape (http://www.inkscape.org/) -->
<svg xmlns:svg="http://www.w3.org/2000/svg" xmlns="http://www.w3.org/2000/svg" version="1.0" width="250" height="225" id="svg2929">
  <defs id="defs2931"/>
  <g id="layer1">
    <path d="m 75,40 52.5,0 0,25" id="path2400" style="fill:none;stroke:#000000;stroke-width:1.5;stroke-linecap:butt;stroke-linejoin:miter;stroke-miterlimit:4;stroke-opacity:1;stroke-dasharray:none"/>
    <path d="m 120,65 15,0 0,35 -15,0 0,-35 z" id="path2402" style="fill:none;stroke:#000000;stroke-width:1.5;stroke-linecap:butt;stroke-linejoin:miter;stroke-miterlimit:4;stroke-opacity:1;stroke-dasharray:none"/>
    <path d="m 120,150 15,0 0,35 -15,0 0,-35 z" id="path2404" style="fill:none;stroke:#000000;stroke-width:1.5;stroke-linecap:butt;stroke-linejoin:miter;stroke-miterlimit:4;stroke-opacity:1;stroke-dasharray:none"/>
    <path d="m 127.5,100 0,50" id="path2406" style="fill:none;stroke:#000000;stroke-width:1.5;stroke-linecap:butt;stroke-linejoin:miter;stroke-miterlimit:4;stroke-opacity:1;stroke-dasharray:none"/>
    <path d="m 127.5,185 0,25 -52.5,0" id="path2408" style="fill:none;stroke:#000000;stroke-width:1.5;stroke-linecap:butt;stroke-linejoin:miter;stroke-miterlimit:4;stroke-opacity:1;stroke-dasharray:none"/>
    <path d="m 127.5,125 47.5,0" id="path2410" style="fill:none;stroke:#000000;stroke-width:1.5;stroke-linecap:butt;stroke-linejoin:miter;stroke-miterlimit:4;stroke-opacity:1;stroke-dasharray:none"/>
    <path d="m 335,210 a 5,5 0 1 1 -10,0 5,5 0 1 1 10,0 z" transform="translate(-150,-85)" id="path2412" style="fill:none;stroke:#000000;stroke-width:1.5;stroke-linecap:round;stroke-linejoin:round;stroke-miterlimit:4;stroke-opacity:1;stroke-dasharray:none;stroke-dashoffset:0"/>
    <path d="m 335,210 a 5,5 0 1 1 -10,0 5,5 0 1 1 10,0 z" transform="translate(-260,0)" id="path3184" style="fill:none;stroke:#000000;stroke-width:1.5;stroke-linecap:round;stroke-linejoin:round;stroke-miterlimit:4;stroke-opacity:1;stroke-dasharray:none;stroke-dashoffset:0"/>
    <path d="m 335,210 a 5,5 0 1 1 -10,0 5,5 0 1 1 10,0 z" transform="translate(-260,-170)" id="path3186" style="fill:none;stroke:#000000;stroke-width:1.5;stroke-linecap:round;stroke-linejoin:round;stroke-miterlimit:4;stroke-opacity:1;stroke-dasharray:none;stroke-dashoffset:0"/>
    <path d="m 255,202.5 a 2.5,2.5 0 1 1 -5,0 2.5,2.5 0 1 1 5,0 z" transform="translate(-125,-77.5)" id="path3188" style="fill:#000000;fill-opacity:1;fill-rule:nonzero;stroke:#000000;stroke-width:1.5;stroke-linecap:round;stroke-linejoin:round;stroke-miterlimit:4;stroke-opacity:1;stroke-dasharray:none;stroke-dashoffset:0"/>
    <text x="98.343803" y="90" id="text3190" xml:space="preserve" style="font-size:24px;font-style:normal;font-variant:normal;font-weight:normal;font-stretch:normal;text-align:center;line-height:125%;text-anchor:middle;fill:#000000;fill-opacity:1;stroke:none;font-family:DejaVu Sans"><tspan x="98.343803" y="90" id="tspan3192">R</tspan></text>
    <text x="112.594" y="95" id="text3194" xml:space="preserve" style="font-size:16px;font-style:normal;font-variant:normal;font-weight:normal;font-stretch:normal;text-align:center;line-height:125%;text-anchor:middle;fill:#000000;fill-opacity:1;stroke:none;font-family:DejaVu Sans"><tspan x="112.594" y="95" id="tspan3196">1</tspan></text>
    <path d="m 127.5,210 47.5,0" id="path3198" style="fill:none;stroke:#000000;stroke-width:1.5;stroke-linecap:butt;stroke-linejoin:miter;stroke-miterlimit:4;stroke-opacity:1;stroke-dasharray:none"/>
    <path d="m 335,210 a 5,5 0 1 1 -10,0 5,5 0 1 1 10,0 z" transform="translate(-150,0)" id="path3200" style="fill:none;stroke:#000000;stroke-width:1.5;stroke-linecap:round;stroke-linejoin:round;stroke-miterlimit:4;stroke-opacity:1;stroke-dasharray:none;stroke-dashoffset:0"/>
    <path d="m 255,202.5 a 2.5,2.5 0 1 1 -5,0 2.5,2.5 0 1 1 5,0 z" transform="translate(-125,7.5)" id="path3202" style="fill:#000000;fill-opacity:1;fill-rule:nonzero;stroke:#000000;stroke-width:1.5;stroke-linecap:round;stroke-linejoin:round;stroke-miterlimit:4;stroke-opacity:1;stroke-dasharray:none;stroke-dashoffset:0"/>
    <text x="98.343803" y="175" id="text3204" xml:space="preserve" style="font-size:24px;font-style:normal;font-variant:normal;font-weight:normal;font-stretch:normal;text-align:center;line-height:125%;text-anchor:middle;fill:#000000;fill-opacity:1;stroke:none;font-family:DejaVu Sans"><tspan x="98.343803" y="175" id="tspan3206">R</tspan></text>
    <text x="112.594" y="180" id="text3208" xml:space="preserve" style="font-size:16px;font-style:normal;font-variant:normal;font-weight:normal;font-stretch:normal;text-align:center;line-height:125%;text-anchor:middle;fill:#000000;fill-opacity:1;stroke:none;font-family:DejaVu Sans"><tspan x="112.594" y="180" id="tspan3210">2</tspan></text>
    <path d="m 180,140 0,50" id="path3212" style="fill:none;stroke:#0000ff;stroke-width:1.5;stroke-linecap:butt;stroke-linejoin:miter;stroke-miterlimit:4;stroke-opacity:1;stroke-dasharray:none"/>
    <path d="m 180,195 5,-15 -10,0 5,15 z" id="path3214" style="fill:#0000ff;fill-rule:evenodd;stroke:#0000ff;stroke-width:1px;stroke-linecap:butt;stroke-linejoin:miter;stroke-opacity:1"/>
    <path d="m 70,55 0,135" id="path3216" style="fill:none;stroke:#0000ff;stroke-width:1.5;stroke-linecap:butt;stroke-linejoin:miter;stroke-miterlimit:4;stroke-opacity:1;stroke-dasharray:none"/>
    <path d="m 70,195 5,-15 -10,0 5,15 z" id="path3218" style="fill:#0000ff;fill-rule:evenodd;stroke:#0000ff;stroke-width:1px;stroke-linecap:butt;stroke-linejoin:miter;stroke-opacity:1"/>
    <text x="198.34399" y="175" id="text3220" xml:space="preserve" style="font-size:24px;font-style:normal;font-variant:normal;font-weight:normal;font-stretch:normal;text-align:center;line-height:125%;text-anchor:middle;fill:#000000;fill-opacity:1;stroke:none;font-family:DejaVu Sans"><tspan x="198.34399" y="175" id="tspan3222">U</tspan></text>
    <text x="212.59399" y="180" id="text3224" xml:space="preserve" style="font-size:16px;font-style:normal;font-variant:normal;font-weight:normal;font-stretch:normal;text-align:center;line-height:125%;text-anchor:middle;fill:#000000;fill-opacity:1;stroke:none;font-family:DejaVu Sans"><tspan x="212.59399" y="180" id="tspan3226">2</tspan></text>
    <text x="48.789101" y="120" id="text3228" xml:space="preserve" style="font-size:24px;font-style:normal;font-variant:normal;font-weight:normal;font-stretch:normal;text-align:center;line-height:125%;text-anchor:middle;fill:#000000;fill-opacity:1;stroke:none;font-family:DejaVu Sans"><tspan x="48.789101" y="120" id="tspan3230">U</tspan></text>
    <path d="m 150,55 0,50" id="path3236" style="fill:#0000ff;fill-rule:evenodd;stroke:#0000ff;stroke-width:1.5;stroke-linecap:butt;stroke-linejoin:miter;stroke-miterlimit:4;stroke-opacity:1;stroke-dasharray:none"/>
    <path d="m 150,110 5,-15 -10,0 5,15 z" id="path3238" style="fill:#0000ff;fill-rule:evenodd;stroke:#0000ff;stroke-width:1px;stroke-linecap:butt;stroke-linejoin:miter;stroke-opacity:1"/>
    <text x="168.34399" y="90" id="text3240" xml:space="preserve" style="font-size:24px;font-style:normal;font-variant:normal;font-weight:normal;font-stretch:normal;text-align:center;line-height:125%;text-anchor:middle;fill:#000000;fill-opacity:1;stroke:none;font-family:DejaVu Sans"><tspan x="168.34399" y="90" id="tspan3242">U</tspan></text>
    <text x="182.59399" y="95" id="text3244" xml:space="preserve" style="font-size:16px;font-style:normal;font-variant:normal;font-weight:normal;font-stretch:normal;text-align:center;line-height:125%;text-anchor:middle;fill:#000000;fill-opacity:1;stroke:none;font-family:DejaVu Sans"><tspan x="182.59399" y="95" id="tspan3246">1</tspan></text>
    <path d="m 125,30 -15,-5 0,10 15,-5 z" id="path2434" style="fill:#ff0000;fill-rule:evenodd;stroke:none"/>
    <text x="101.039" y="25" id="text2436" xml:space="preserve" style="font-size:24px;font-style:normal;font-variant:normal;font-weight:normal;font-stretch:normal;text-align:center;line-height:125%;text-anchor:middle;fill:#000000;fill-opacity:1;stroke:none;font-family:DejaVu Sans"><tspan x="101.039" y="25" id="tspan2438">I</tspan></text>
    <path d="m 85,30 30,0" id="path2485" style="fill:#ff0000;fill-rule:evenodd;stroke:#ff0000;stroke-width:1.5;stroke-linecap:butt;stroke-linejoin:miter;stroke-miterlimit:4;stroke-opacity:1;stroke-dasharray:none"/>
  </g>
</svg>